/* XPM */
static char *_4173c25d2d649c2a594136391da2e33YAESUwiUmIPEWBAH[] = {
/* columns rows colors chars-per-pixel */
"128 128 6 1 ",
"  c #679E32",
". c #73B038",
"X c #7BBC3C",
"o c #84C940",
"O c #8DD644",
"+ c white",
/* pixels */
"            ....        ....            ....XXXXXXXX        ....    XXXXXXXXooooooooXXXXXXXXXXXX........                        ",
"            ....        ....            ....XXXXXXXX        ....    XXXXXXXXooooooooXXXXXXXXXXXX........                        ",
"            ....        ....            ....XXXXXXXX        ....    XXXXXXXXooooooooXXXXXXXXXXXX........                        ",
"            ....        ....            ....XXXXXXXX        ....    XXXXXXXXooooooooXXXXXXXXXXXX........                        ",
"        oooooooooooo    ....XXXXXXXXXXXX            OOOO....    XXXXXXXXooooXXXXXXXX            ....        ooooooooXXXXXXXX    ",
"        oooooooooooo    ....XXXXXXXXXXXX            OOOO....    XXXXXXXXooooXXXXXXXX            ....        ooooooooXXXXXXXX    ",
"        oooooooooooo    ....XXXXXXXXXXXX            OOOO....    XXXXXXXXooooXXXXXXXX            ....        ooooooooXXXXXXXX    ",
"        oooooooooooo    ....XXXXXXXXXXXX            OOOO....    XXXXXXXXooooXXXXXXXX            ....        ooooooooXXXXXXXX    ",
"XXXX        oooo    oooooooooooooooo....    XXXXXXXXXXXX    ....oooooooo....oooo    ....XXXXXXXXXXXX    XXXXXXXXooooOOOOXXXXXXXX",
"XXXX        oooo    oooooooooooooooo....    XXXXXXXXXXXX    ....oooooooo....oooo    ....XXXXXXXXXXXX    XXXXXXXXooooOOOOXXXXXXXX",
"XXXX        oooo    oooooooooooooooo....    XXXXXXXXXXXX    ....oooooooo....oooo    ....XXXXXXXXXXXX    XXXXXXXXooooOOOOXXXXXXXX",
"XXXX        oooo    oooooooooooooooo....    XXXXXXXXXXXX    ....oooooooo....oooo    ....XXXXXXXXXXXX    XXXXXXXXooooOOOOXXXXXXXX",
"XXXXoooo........        ooooooooXXXXXXXXXXXX    XXXXXXXXXXXXXXXXXXXXXXXXoooooooo                    ....    XXXXXXXXXXXXoooo    ",
"XXXXoooo........        ooooooooXXXXXXXXXXXX    XXXXXXXXXXXXXXXXXXXXXXXXoooooooo                    ....    XXXXXXXXXXXXoooo    ",
"XXXXoooo........        ooooooooXXXXXXXXXXXX    XXXXXXXXXXXXXXXXXXXXXXXXoooooooo                    ....    XXXXXXXXXXXXoooo    ",
"XXXXoooo........        ooooooooXXXXXXXXXXXX    XXXXXXXXXXXXXXXXXXXXXXXXoooooooo                    ....    XXXXXXXXXXXXoooo    ",
"XXXXoooo....    XXXXXXXXXXXXXXXXXXXXOOOO    XXXX....ooooooooXXXXXXXXXXXXXXXXXXXXXXXXXXXXXXXXXXXXOOOO........    ....    ....    ",
"XXXXoooo....    XXXXXXXXXXXXXXXXXXXXOOOO    XXXX....ooooooooXXXXXXXXXXXXXXXXXXXXXXXXXXXXXXXXXXXXOOOO........    ....    ....    ",
"XXXXoooo....    XXXXXXXXXXXXXXXXXXXXOOOO    XXXX....ooooooooXXXXXXXXXXXXXXXXXXXXXXXXXXXXXXXXXXXXOOOO........    ....    ....    ",
"XXXXoooo....    XXXXXXXXXXXXXXXXXXXXOOOO    XXXX....ooooooooXXXXXXXXXXXXXXXXXXXXXXXXXXXXXXXXXXXXOOOO........    ....    ....    ",
"OOOO    ooooXXXXooooooooXXXXXXXXXXXXXXXXooooooooXXXXXXXXXXXXooooooooooooooooooooooooXXXXXXXXXXXXXXXXXXXX    ....    ........    ",
"OOOO    ooooXXXXooooooooXXXXXXXXXXXXXXXXooooooooXXXXXXXXXXXXooooooooooooooooooooooooXXXXXXXXXXXXXXXXXXXX    ....    ........    ",
"OOOO    ooooXXXXooooooooXXXXXXXXXXXXXXXXooooooooXXXXXXXXXXXXooooooooooooooooooooooooXXXXXXXXXXXXXXXXXXXX    ....    ........    ",
"OOOO    ooooXXXXooooooooXXXXXXXXXXXXXXXXooooooooXXXXXXXXXXXXooooooooooooooooooooooooXXXXXXXXXXXXXXXXXXXX    ....    ........    ",
"    ....XXXXXXXXXXXXoooooooooooo    oooo    oooooooooooooooo        XXXXXXXXOOOOooooooooXXXXXXXXXXXXXXXXXXXXoooooooo        ....",
"    ....XXXXXXXXXXXXoooooooooooo    oooo    oooooooooooooooo        XXXXXXXXOOOOooooooooXXXXXXXXXXXXXXXXXXXXoooooooo        ....",
"    ....XXXXXXXXXXXXoooooooooooo    oooo    oooooooooooooooo        XXXXXXXXOOOOooooooooXXXXXXXXXXXXXXXXXXXXoooooooo        ....",
"    ....XXXXXXXXXXXXoooooooooooo    oooo    oooooooooooooooo        XXXXXXXXOOOOooooooooXXXXXXXXXXXXXXXXXXXXoooooooo        ....",
"    ....ooooooooXXXXXXXXXXXX    XXXX    XXXXXXXXooooOOOO    oooooooooooooooooooooooo    ....XXXXooooooooXXXXXXXXXXXXXXXX....    ",
"    ....ooooooooXXXXXXXXXXXX    XXXX    XXXXXXXXooooOOOO    oooooooooooooooooooooooo    ....XXXXooooooooXXXXXXXXXXXXXXXX....    ",
"    ....ooooooooXXXXXXXXXXXX    XXXX    XXXXXXXXooooOOOO    oooooooooooooooooooooooo    ....XXXXooooooooXXXXXXXXXXXXXXXX....    ",
"    ....ooooooooXXXXXXXXXXXX    XXXX    XXXXXXXXooooOOOO    oooooooooooooooooooooooo    ....XXXXooooooooXXXXXXXXXXXXXXXX....    ",
"............ooooooooooooooooXXXXooooooooXXXXXXXXXXXXXXXXXXXXooooXXXX    oooooooo    ooooooooXXXXXXXXXXXXXXXXXXXXXXXX    ....XXXX",
"............ooooooooooooooooXXXXooooooooXXXXXXXXXXXXXXXXXXXXooooXXXX    oooooooo    ooooooooXXXXXXXXXXXXXXXXXXXXXXXX    ....XXXX",
"............ooooooooooooooooXXXXooooooooXXXXXXXXXXXXXXXXXXXXooooXXXX    oooooooo    ooooooooXXXXXXXXXXXXXXXXXXXXXXXX    ....XXXX",
"............ooooooooooooooooXXXXooooooooXXXXXXXXXXXXXXXXXXXXooooXXXX    oooooooo    ooooooooXXXXXXXXXXXXXXXXXXXXXXXX    ....XXXX",
"        ....oooo....    oooooooo    XXXXXXXXXXXXXXXXXXXXXXXXXXXX    XXXX....XXXXooooooooooooooooXXXXXXXX        ....    XXXXOOOO",
"        ....oooo....    oooooooo    XXXXXXXXXXXXXXXXXXXXXXXXXXXX    XXXX....XXXXooooooooooooooooXXXXXXXX        ....    XXXXOOOO",
"        ....oooo....    oooooooo    XXXXXXXXXXXXXXXXXXXXXXXXXXXX    XXXX....XXXXooooooooooooooooXXXXXXXX        ....    XXXXOOOO",
"        ....oooo....    oooooooo    XXXXXXXXXXXXXXXXXXXXXXXXXXXX    XXXX....XXXXooooooooooooooooXXXXXXXX        ....    XXXXOOOO",
"XXXXXXXXOOOO    XXXXOOOOXXXX    ....        ....    ooooooooooooooooXXXXXXXXXXXXXXXXXXXXXXXXXXXX    ........    XXXXXXXXOOOOXXXX",
"XXXXXXXXOOOO    XXXXOOOOXXXX    ....        ....    ooooooooooooooooXXXXXXXXXXXXXXXXXXXXXXXXXXXX    ........    XXXXXXXXOOOOXXXX",
"XXXXXXXXOOOO    XXXXOOOOXXXX    ....        ....    ooooooooooooooooXXXXXXXXXXXXXXXXXXXXXXXXXXXX    ........    XXXXXXXXOOOOXXXX",
"XXXXXXXXOOOO    XXXXOOOOXXXX    ....        ....    ooooooooooooooooXXXXXXXXXXXXXXXXXXXXXXXXXXXX    ........    XXXXXXXXOOOOXXXX",
"    XXXX                        ........            ....    ....    OOOO    ....        ....            ....XXXXXXXXOOOOOOOOXXXX",
"    XXXX                        ........            ....    ....    OOOO    ....        ....            ....XXXXXXXXOOOOOOOOXXXX",
"    XXXX                        ........            ....    ....    OOOO    ....        ....            ....XXXXXXXXOOOOOOOOXXXX",
"    XXXX                        ........            ....    ....    OOOO    ....        ....            ....XXXXXXXXOOOOOOOOXXXX",
"                                XXXXXXXXOOOOXXXXXXXXOOOOXXXX    ....    XXXX    ....    OOOOXXXXXXXXXXXXXXXXXXXXXXXXXXXXOOOOXXXX",
"                                XXXXXXXXOOOOXXXXXXXXOOOOXXXX    ....    XXXX    ....    OOOOXXXXXXXXXXXXXXXXXXXXXXXXXXXXOOOOXXXX",
"                                XXXXXXXXOOOOXXXXXXXXOOOOXXXX    ....    XXXX    ....    OOOOXXXXXXXXXXXXXXXXXXXXXXXXXXXXOOOOXXXX",
"                                XXXXXXXXOOOOXXXXXXXXOOOOXXXX    ....    XXXX    ....    OOOOXXXXXXXXXXXXXXXXXXXXXXXXXXXXOOOOXXXX",
"    ....ooooooooXXXXXXXXXXXX    XXXX    XXXXXXXXooooOOOO    oooooooooooooooooooooooo    ....XXXXooooooooXXXXXXXXXXXXXXXX....    ",
"    ....ooooooooXXXXXXXXXXXX    XXXX    XXXXXXXXooooOOOO    oooooooooooooooooooooooo    ....XXXXooooooooXXXXXXXXXXXXXXXX....    ",
"    ....ooooooooXXXXXXXXXXXX    XXXX    XXXXXXXXooooOOOO    oooooooooooooooooooooooo    ....XXXXooooooooXXXXXXXXXXXXXXXX....    ",
"    ....ooooooooXXXXXXXXXXXX    XXXX    XXXXXXXXooooOOOO    oooooooooooooooooooooooo    ....XXXXooooooooXXXXXXXXXXXXXXXX....    ",
"............ooooooooooooooooXXXXooooooooXXXXXXXXXXXXXXXXXXXXooooXXXX    oooooooo    ooooooooXXXXXXXXXXXXXXXXXXXXXXXX    ....XXXX",
"............ooooooooooooooooXXXXooooooooXXXXXXXXXXXXXXXXXXXXooooXXXX    oooooooo    ooooooooXXXXXXXXXXXXXXXXXXXXXXXX    ....XXXX",
"............ooooooooooooooooXXXXooooooooXXXXXXXXXXXXXXXXXXXXooooXXXX    oooooooo    ooooooooXXXXXXXXXXXXXXXXXXXXXXXX    ....XXXX",
"............ooooooooooooooooXXXXooooooooXXXXXXXXXXXXXXXXXXXXooooXXXX    oooooooo    ooooooooXXXXXXXXXXXXXXXXXXXXXXXX    ....XXXX",
"        ....oooo....    oooooooo    XXXXXXXXXXXXXXXXXXXXXXXXXXXX    XXXX....XXXXooooooooooooooooXXXXXXXX        ....    XXXXOOOO",
"        ....oooo....    oooooooo    XXXXXXXXXXXXXXXXXXXXXXXXXXXX    XXXX....XXXXooooooooooooooooXXXXXXXX        ....    XXXXOOOO",
"        ....oooo....    oooooooo    XXXXXXXXXXXXXXXXXXXXXXXXXXXX    XXXX....XXXXooooooooooooooooXXXXXXXX        ....    XXXXOOOO",
"        ....oooo....    oooooooo    XXXXXXXXXXXXXXXXXXXXXXXXXXXX    XXXX....XXXXooooooooooooooooXXXXXXXX        ....    XXXXOOOO",
"XXXXXXXXOOOO    XXXXOOOOXXXX    ....        ....    ooooooooooooooooXXXXXXXXXXXXXXXXXXXXXXXXXXXX    ........    XXXXXXXXOOOOXXXX",
"XXXXXXXXOOOO    XXXXOOOOXXXX    ....        ....    ooooooooooooooooXXXXXXXXXXXXXXXXXXXXXXXXXXXX    ........    XXXXXXXXOOOOXXXX",
"XXXXXXXXOOOO    XXXXOOOOXXXX    ....        ....    ooooooooooooooooXXXXXXXXXXXXXXXXXXXXXXXXXXXX    ........    XXXXXXXXOOOOXXXX",
"XXXXXXXXOOOO    XXXXOOOOXXXX    ....        ....    ooooooooooooooooXXXXXXXXXXXXXXXXXXXXXXXXXXXX    ........    XXXXXXXXOOOOXXXX",
"    XXXX                        ........            ....    ....    OOOO    ....        ....            ....XXXXXXXXOOOOOOOOXXXX",
"    XXXX                        ........            ....    ....    OOOO    ....        ....            ....XXXXXXXXOOOOOOOOXXXX",
"    XXXX                        ........            ....    ....    OOOO    ....        ....            ....XXXXXXXXOOOOOOOOXXXX",
"    XXXX                        ........            ....    ....    OOOO    ....        ....            ....XXXXXXXXOOOOOOOOXXXX",
"                                XXXXXXXXOOOOXXXXXXXXOOOOXXXX    ....    XXXX    ....    OOOOXXXXXXXXXXXXXXXXXXXXXXXXXXXXOOOOXXXX",
"                                XXXXXXXXOOOOXXXXXXXXOOOOXXXX    ....    XXXX    ....    OOOOXXXXXXXXXXXXXXXXXXXXXXXXXXXXOOOOXXXX",
"                                XXXXXXXXOOOOXXXXXXXXOOOOXXXX    ....    XXXX    ....    OOOOXXXXXXXXXXXXXXXXXXXXXXXXXXXXOOOOXXXX",
"                                XXXXXXXXOOOOXXXXXXXXOOOOXXXX    ....    XXXX    ....    OOOOXXXXXXXXXXXXXXXXXXXXXXXXXXXXOOOOXXXX",
"            ....        ....            ....XXXXXXXX        ....    XXXXXXXXooooooooXXXXXXXXXXXX........                        ",
"            ....        ....            ....XXXXXXXX        ....    XXXXXXXXooooooooXXXXXXXXXXXX........                        ",
"            ....        ....            ....XXXXXXXX        ....    XXXXXXXXooooooooXXXXXXXXXXXX........                        ",
"            ....        ....            ....XXXXXXXX        ....    XXXXXXXXooooooooXXXXXXXXXXXX........                        ",
"        oooooooooooo    ....XXXXXXXXXXXX            OOOO....    XXXXXXXXooooXXXXXXXX            ....        ooooooooXXXXXXXX    ",
"        oooooooooooo    ....XXXXXXXXXXXX            OOOO....    XXXXXXXXooooXXXXXXXX            ....        ooooooooXXXXXXXX    ",
"        oooooooooooo    ....XXXXXXXXXXXX            OOOO....    XXXXXXXXooooXXXXXXXX            ....        ooooooooXXXXXXXX    ",
"        oooooooooooo    ....XXXXXXXXXXXX            OOOO....    XXXXXXXXooooXXXXXXXX            ....        ooooooooXXXXXXXX    ",
"XXXX        oooo    oooooooooooooooo....    XXXXXXXXXXXX    ....oooooooo....oooo    ....XXXXXXXXXXXX    XXXXXXXXooooOOOOXXXXXXXX",
"XXXX        oooo    oooooooooooooooo....    XXXXXXXXXXXX    ....oooooooo....oooo    ....XXXXXXXXXXXX    XXXXXXXXooooOOOOXXXXXXXX",
"XXXX        oooo    oooooooooooooooo....    XXXXXXXXXXXX    ....oooooooo....oooo    ....XXXXXXXXXXXX    XXXXXXXXooooOOOOXXXXXXXX",
"XXXX        oooo    oooooooooooooooo....    XXXXXXXXXXXX    ....oooooooo....oooo    ....XXXXXXXXXXXX    XXXXXXXXooooOOOOXXXXXXXX",
"XXXXoooo........        ooooooooXXXXXXXXXXXX    XXXXXXXXXXXXXXXXXXXXXXXXoooooooo                    ....    XXXXXXXXXXXXoooo    ",
"XXXXoooo........        ooooooooXXXXXXXXXXXX    XXXXXXXXXXXXXXXXXXXXXXXXoooooooo                    ....    XXXXXXXXXXXXoooo    ",
"XXXXoooo........        ooooooooXXXXXXXXXXXX    XXXXXXXXXXXXXXXXXXXXXXXXoooooooo                    ....    XXXXXXXXXXXXoooo    ",
"XXXXoooo........        ooooooooXXXXXXXXXXXX    XXXXXXXXXXXXXXXXXXXXXXXXoooooooo                    ....    XXXXXXXXXXXXoooo    ",
"XXXXoooo....    XXXXXXXXXXXXXXXXXXXXOOOO    XXXX....ooooooooXXXXXXXXXXXXXXXXXXXXXXXXXXXXXXXXXXXXOOOO........    ....    ....    ",
"XXXXoooo....    XXXXXXXXXXXXXXXXXXXXOOOO    XXXX....ooooooooXXXXXXXXXXXXXXXXXXXXXXXXXXXXXXXXXXXXOOOO........    ....    ....    ",
"XXXXoooo....    XXXXXXXXXXXXXXXXXXXXOOOO    XXXX....ooooooooXXXXXXXXXXXXXXXXXXXXXXXXXXXXXXXXXXXXOOOO........    ....    ....    ",
"XXXXoooo....    XXXXXXXXXXXXXXXXXXXXOOOO    XXXX....ooooooooXXXXXXXXXXXXXXXXXXXXXXXXXXXXXXXXXXXXOOOO........    ....    ....    ",
"OOOO    ooooXXXXooooooooXXXXXXXXXXXXXXXXooooooooXXXXXXXXXXXXooooooooooooooooooooooooXXXXXXXXXXXXXXXXXXXX    ....    ........    ",
"OOOO    ooooXXXXooooooooXXXXXXXXXXXXXXXXooooooooXXXXXXXXXXXXooooooooooooooooooooooooXXXXXXXXXXXXXXXXXXXX    ....    ........    ",
"OOOO    ooooXXXXooooooooXXXXXXXXXXXXXXXXooooooooXXXXXXXXXXXXooooooooooooooooooooooooXXXXXXXXXXXXXXXXXXXX    ....    ........    ",
"OOOO    ooooXXXXooooooooXXXXXXXXXXXXXXXXooooooooXXXXXXXXXXXXooooooooooooooooooooooooXXXXXXXXXXXXXXXXXXXX    ....    ........    ",
"    ....XXXXXXXXXXXXoooooooooooo    oooo    oooooooooooooooo        XXXXXXXXOOOOooooooooXXXXXXXXXXXXXXXXXXXXoooooooo        ....",
"    ....XXXXXXXXXXXXoooooooooooo    oooo    oooooooooooooooo        XXXXXXXXOOOOooooooooXXXXXXXXXXXXXXXXXXXXoooooooo        ....",
"    ....XXXXXXXXXXXXoooooooooooo    oooo    oooooooooooooooo        XXXXXXXXOOOOooooooooXXXXXXXXXXXXXXXXXXXXoooooooo        ....",
"    ....XXXXXXXXXXXXoooooooooooo    oooo    oooooooooooooooo        XXXXXXXXOOOOooooooooXXXXXXXXXXXXXXXXXXXXoooooooo        ....",
"    ....ooooooooXXXXXXXXXXXX    XXXX    XXXXXXXXooooOOOO    oooooooooooooooooooooooo    ....XXXXooooooooXXXXXXXXXXXXXXXX....    ",
"    ....ooooooooXXXXXXXXXXXX    XXXX    XXXXXXXXooooOOOO    oooooooooooooooooooooooo    ....XXXXooooooooXXXXXXXXXXXXXXXX....    ",
"    ....ooooooooXXXXXXXXXXXX    XXXX    XXXXXXXXooooOOOO    oooooooooooooooooooooooo    ....XXXXooooooooXXXXXXXXXXXXXXXX....    ",
"    ....ooooooooXXXXXXXXXXXX    XXXX    XXXXXXXXooooOOOO    oooooooooooooooooooooooo    ....XXXXooooooooXXXXXXXXXXXXXXXX....    ",
"............ooooooooooooooooXXXXooooooooXXXXXXXXXXXXXXXXXXXXooooXXXX    oooooooo    ooooooooXXXXXXXXXXXXXXXXXXXXXXXX    ....XXXX",
"............ooooooooooooooooXXXXooooooooXXXXXXXXXXXXXXXXXXXXooooXXXX    oooooooo    ooooooooXXXXXXXXXXXXXXXXXXXXXXXX    ....XXXX",
"............ooooooooooooooooXXXXooooooooXXXXXXXXXXXXXXXXXXXXooooXXXX    oooooooo    ooooooooXXXXXXXXXXXXXXXXXXXXXXXX    ....XXXX",
"............ooooooooooooooooXXXXooooooooXXXXXXXXXXXXXXXXXXXXooooXXXX    oooooooo    ooooooooXXXXXXXXXXXXXXXXXXXXXXXX    ....XXXX",
"        ....oooo....    oooooooo    XXXXXXXXXXXXXXXXXXXXXXXXXXXX    XXXX....XXXXooooooooooooooooXXXXXXXX        ....    XXXXOOOO",
"        ....oooo....    oooooooo    XXXXXXXXXXXXXXXXXXXXXXXXXXXX    XXXX....XXXXooooooooooooooooXXXXXXXX        ....    XXXXOOOO",
"        ....oooo....    oooooooo    XXXXXXXXXXXXXXXXXXXXXXXXXXXX    XXXX....XXXXooooooooooooooooXXXXXXXX        ....    XXXXOOOO",
"        ....oooo....    oooooooo    XXXXXXXXXXXXXXXXXXXXXXXXXXXX    XXXX....XXXXooooooooooooooooXXXXXXXX        ....    XXXXOOOO",
"XXXXXXXXOOOO    XXXXOOOOXXXX    ....        ....    ooooooooooooooooXXXXXXXXXXXXXXXXXXXXXXXXXXXX    ........    XXXXXXXXOOOOXXXX",
"XXXXXXXXOOOO    XXXXOOOOXXXX    ....        ....    ooooooooooooooooXXXXXXXXXXXXXXXXXXXXXXXXXXXX    ........    XXXXXXXXOOOOXXXX",
"XXXXXXXXOOOO    XXXXOOOOXXXX    ....        ....    ooooooooooooooooXXXXXXXXXXXXXXXXXXXXXXXXXXXX    ........    XXXXXXXXOOOOXXXX",
"XXXXXXXXOOOO    XXXXOOOOXXXX    ....        ....    ooooooooooooooooXXXXXXXXXXXXXXXXXXXXXXXXXXXX    ........    XXXXXXXXOOOOXXXX",
"    XXXX                        ........            ....    ....    OOOO    ....        ....            ....XXXXXXXXOOOOOOOOXXXX",
"    XXXX                        ........            ....    ....    OOOO    ....        ....            ....XXXXXXXXOOOOOOOOXXXX",
"    XXXX                        ........            ....    ....    OOOO    ....        ....            ....XXXXXXXXOOOOOOOOXXXX",
"    XXXX                        ........            ....    ....    OOOO    ....        ....            ....XXXXXXXXOOOOOOOOXXXX",
"                                XXXXXXXXOOOOXXXXXXXXOOOOXXXX    ....    XXXX    ....    OOOOXXXXXXXXXXXXXXXXXXXXXXXXXXXXOOOOXXXX",
"                                XXXXXXXXOOOOXXXXXXXXOOOOXXXX    ....    XXXX    ....    OOOOXXXXXXXXXXXXXXXXXXXXXXXXXXXXOOOOXXXX",
"                                XXXXXXXXOOOOXXXXXXXXOOOOXXXX    ....    XXXX    ....    OOOOXXXXXXXXXXXXXXXXXXXXXXXXXXXXOOOOXXXX",
"                                XXXXXXXXOOOOXXXXXXXXOOOOXXXX    ....    XXXX    ....    OOOOXXXXXXXXXXXXXXXXXXXXXXXXXXXXOOOOXXXX"
};
